<?xml version="1.0" encoding="UTF-8"?>
<!DOCTYPE svg PUBLIC "-//W3C//DTD SVG 1.1//EN" "http://www.w3.org/Graphics/SVG/1.1/DTD/svg11.dtd">
<!-- Creator: CorelDRAW X7 -->
<svg xmlns="http://www.w3.org/2000/svg" xml:space="preserve" width="2in" height="1in" version="1.1" style="shape-rendering:geometricPrecision; text-rendering:geometricPrecision; image-rendering:optimizeQuality; fill-rule:evenodd; clip-rule:evenodd"
viewBox="0 0 2000 1000"
 xmlns:xlink="http://www.w3.org/1999/xlink">
 <defs>
  <style type="text/css">
   <![CDATA[
    .fil0 {fill:#AC7ADB}
    .fil1 {fill:#AC7ADB;fill-rule:nonzero}
   ]]>
  </style>
 </defs>
 <g id="Layer_x0020_1">
  <metadata id="CorelCorpID_0Corel-Layer"/>
  <path class="fil0" d="M218 804c7,-2 17,-12 22,-16l150 -122 1 -128c-9,4 -78,61 -86,68 -9,7 -79,65 -87,68 -7,-6 -14,-12 -22,-18l-156 -125c-2,37 0,75 0,112 -1,18 -3,15 22,34 48,37 106,88 156,127z"/>
  <path class="fil0" d="M57 489c4,8 144,117 161,132 7,-3 73,-57 80,-63 7,-5 12,-9 19,-15l61 -48 0 -129c-15,9 -26,20 -40,31 -15,12 -112,91 -120,94l-161 -128 0 126z"/>
  <path class="fil0" d="M132 363l88 67c6,-3 15,-12 21,-16l63 -51c-2,-10 -16,-31 -21,-42l-64 -125c-6,5 -83,156 -87,167z"/>
  <path class="fil1" d="M459 671l0 -243 91 0c19,0 34,4 47,11 13,7 22,16 29,28 6,12 9,26 9,41 0,16 -3,30 -9,42 -7,12 -17,21 -29,28 -13,7 -29,11 -48,11l-60 0 0 -36 55 0c11,0 20,-2 27,-6 7,-4 12,-9 15,-16 3,-6 5,-14 5,-23 0,-8 -2,-16 -5,-22 -3,-7 -8,-12 -15,-16 -8,-3 -17,-5 -28,-5l-40 0 0 206 -44 0z"/>
  <path id="1" class="fil1" d="M672 671l0 -182 41 0 0 30 2 0c4,-10 9,-18 17,-24 9,-6 18,-9 28,-9 3,0 5,0 8,1 3,0 6,0 8,0l0 39c-2,0 -5,-1 -9,-1 -4,-1 -7,-1 -11,-1 -8,0 -15,2 -21,5 -7,4 -11,8 -15,14 -3,6 -5,13 -5,21l0 107 -43 0z"/>
  <path id="2" class="fil1" d="M878 674c-18,0 -34,-3 -47,-11 -14,-8 -24,-19 -31,-33 -7,-14 -11,-30 -11,-49 0,-19 4,-35 11,-49 7,-15 17,-26 30,-34 13,-8 28,-11 45,-11 11,0 22,1 32,5 10,3 19,9 26,16 8,8 14,17 19,29 4,12 6,25 6,41l0 14 -149 0 0 -29 128 0 -20 8c0,-10 -1,-19 -4,-27 -3,-7 -8,-13 -14,-18 -7,-4 -14,-6 -24,-6 -9,0 -17,2 -24,6 -6,5 -11,11 -14,18 -4,7 -6,15 -6,24l0 20c0,12 2,21 6,29 4,8 10,14 17,18 7,4 15,6 24,6 7,0 12,-1 17,-2 5,-2 10,-5 13,-8 4,-4 7,-8 9,-13l38 8c-2,9 -7,18 -14,25 -8,8 -16,13 -27,17 -11,4 -23,6 -36,6z"/>
  <path id="3" class="fil1" d="M1073 674c-17,0 -33,-3 -46,-11 -13,-8 -23,-19 -30,-33 -7,-14 -10,-31 -10,-49 0,-19 3,-36 10,-50 7,-14 17,-25 30,-33 13,-8 29,-11 46,-11 11,0 20,1 29,3 8,3 16,7 23,12 7,5 12,11 17,18 5,7 8,15 10,24l-40 8c-1,-5 -3,-9 -5,-13 -2,-4 -5,-7 -8,-10 -3,-2 -7,-4 -11,-6 -4,-1 -9,-2 -14,-2 -10,0 -18,2 -25,8 -6,5 -11,12 -14,21 -4,9 -5,19 -5,31 0,11 1,21 5,30 3,9 8,16 14,21 7,6 15,8 25,8 5,0 10,-1 14,-2 4,-2 8,-4 11,-7 4,-2 7,-6 9,-10 2,-4 4,-8 5,-13l39 8c-2,9 -5,17 -9,24 -5,8 -11,14 -18,19 -7,5 -14,9 -23,11 -9,3 -18,4 -29,4z"/>
  <path id="4" class="fil1" d="M1189 671l0 -182 42 0 0 182 -42 0zm21 -208c-7,0 -13,-2 -18,-7 -4,-4 -7,-10 -7,-16 0,-7 3,-12 7,-17 5,-4 11,-6 18,-6 7,0 13,2 17,7 5,4 8,9 8,16 0,6 -3,12 -8,16 -4,5 -10,7 -17,7z"/>
  <path id="5" class="fil1" d="M1345 674c-14,0 -27,-2 -37,-6 -11,-4 -20,-9 -27,-17 -7,-8 -11,-17 -13,-28l39 -8c3,9 7,16 14,21 6,4 14,6 25,6 10,0 18,-2 24,-6 7,-4 10,-10 10,-16 0,-5 -2,-9 -6,-13 -4,-3 -11,-6 -19,-8l-31 -6c-17,-4 -30,-10 -38,-18 -9,-9 -13,-20 -13,-33 0,-11 3,-21 9,-29 6,-9 15,-15 26,-20 11,-4 24,-6 38,-6 14,0 26,1 36,5 10,4 18,10 24,17 6,7 10,15 13,24l-38 8c-2,-7 -6,-12 -11,-16 -6,-5 -13,-7 -23,-7 -9,0 -17,2 -23,6 -6,4 -9,9 -9,15 0,6 2,10 6,13 4,4 11,7 20,9l31 6c17,4 30,10 38,18 9,8 13,18 13,31 0,12 -3,22 -10,31 -7,8 -16,15 -28,20 -11,5 -25,7 -40,7z"/>
  <path id="6" class="fil1" d="M1459 671l0 -182 42 0 0 182 -42 0zm21 -208c-7,0 -12,-2 -17,-7 -5,-4 -7,-10 -7,-16 0,-7 2,-12 7,-17 5,-4 10,-6 17,-6 7,0 13,2 18,7 5,4 7,9 7,16 0,6 -2,12 -7,16 -5,5 -11,7 -18,7z"/>
  <path id="7" class="fil1" d="M1625 674c-17,0 -33,-3 -46,-11 -13,-8 -23,-19 -30,-33 -7,-14 -11,-31 -11,-49 0,-19 4,-36 11,-50 7,-14 17,-25 30,-33 13,-8 29,-11 46,-11 18,0 33,3 46,11 14,8 24,19 31,33 7,14 10,31 10,50 0,18 -3,35 -10,49 -7,14 -17,25 -31,33 -13,8 -28,11 -46,11zm0 -34c10,0 18,-3 25,-8 6,-5 11,-12 15,-21 3,-9 4,-19 4,-30 0,-12 -1,-22 -4,-31 -4,-9 -9,-16 -15,-21 -7,-5 -15,-8 -25,-8 -10,0 -18,3 -24,8 -7,5 -12,12 -15,21 -3,9 -5,19 -5,31 0,11 2,21 5,30 3,9 8,16 15,21 6,5 14,8 24,8z"/>
  <path id="8" class="fil1" d="M1792 564l0 107 -43 0 0 -182 40 0 1 45 -3 0c5,-16 12,-28 22,-36 10,-8 22,-11 37,-11 13,0 23,2 33,7 9,6 16,14 22,24 5,10 7,22 7,37l0 116 -42 0 0 -109c0,-13 -3,-22 -9,-29 -7,-7 -15,-11 -27,-11 -7,0 -14,2 -20,5 -5,4 -10,8 -13,15 -4,6 -5,13 -5,22z"/>
 </g>
</svg>
